<?xml version="1.0" ?><!-- Uploaded to: SVG Repo, www.svgrepo.com, Generator: SVG Repo Mixer Tools -->
<svg fill="#000000" width="800px" height="800px" viewBox="0 0 35 35" data-name="Layer 2" id="a1601ee4-9861-40f7-9d22-1715f3ba9d62" xmlns="http://www.w3.org/2000/svg"><path d="M28.272,27.7H6.729A4.2,4.2,0,0,1,2.537,23.5V5.782A4.2,4.2,0,0,1,6.729,1.59H28.272a4.2,4.2,0,0,1,4.191,4.192V23.5A4.2,4.2,0,0,1,28.272,27.7ZM6.729,4.09A1.694,1.694,0,0,0,5.037,5.782V23.5A1.694,1.694,0,0,0,6.729,25.2H28.272A1.694,1.694,0,0,0,29.963,23.5V5.782A1.694,1.694,0,0,0,28.272,4.09Z"/><path d="M33.5,33.41H1.5a1.25,1.25,0,1,1,0-2.5h32a1.25,1.25,0,1,1,0,2.5Z"/></svg>